<svg xmlns="http://www.w3.org/2000/svg" viewBox="0 0 200 50" width="200" height="50">
  <defs>
    <linearGradient id="azGrad" x1="0%" y1="0%" x2="100%" y2="100%">
      <stop offset="0%" style="stop-color:#0078D4"/>
      <stop offset="100%" style="stop-color:#50E6FF"/>
    </linearGradient>
  </defs>
  <!-- Lake wave icon -->
  <g transform="translate(5,8)">
    <!-- Water drop / lake shape -->
    <path d="M16 4 C16 4 8 14 8 20 C8 24.4 11.6 28 16 28 C20.4 28 24 24.4 24 20 C24 14 16 4 16 4Z" fill="url(#azGrad)" opacity="0.9"/>
    <!-- Wave lines inside -->
    <path d="M10 20 Q13 18 16 20 Q19 22 22 20" stroke="white" stroke-width="1.5" fill="none" stroke-linecap="round"/>
    <path d="M11 23 Q14 21 16 23 Q18 25 21 23" stroke="white" stroke-width="1.2" fill="none" stroke-linecap="round" opacity="0.7"/>
    <!-- Version branch dot -->
    <circle cx="20" cy="10" r="3" fill="#50E6FF"/>
    <line x1="16" y1="8" x2="20" y2="10" stroke="#50E6FF" stroke-width="1.5" stroke-linecap="round"/>
  </g>
  <!-- Text: azlake -->
  <text x="42" y="35" font-family="Segoe UI, -apple-system, sans-serif" font-size="26" font-weight="700" fill="#E0E0E0" letter-spacing="-0.5">
    <tspan fill="url(#azGrad)">az</tspan><tspan fill="#E0E0E0">lake</tspan>
  </text>
</svg>
